<svg width="18" height="20" viewBox="0 0 18 20" fill="none" xmlns="http://www.w3.org/2000/svg">
<path d="M5.36508 0.691406L5.07937 1.25H1.26984C0.56746 1.25 0 1.80859 0 2.5C0 3.19141 0.56746 3.75 1.26984 3.75H16.5079C17.2103 3.75 17.7778 3.19141 17.7778 2.5C17.7778 1.80859 17.2103 1.25 16.5079 1.25H12.6984L12.4127 0.691406C12.1984 0.265625 11.7579 0 11.2778 0H6.5C6.01984 0 5.57937 0.265625 5.36508 0.691406ZM16.5079 5H1.26984L2.11111 18.2422C2.1746 19.2305 3.00794 20 4.0119 20H13.7659C14.7698 20 15.6032 19.2305 15.6667 18.2422L16.5079 5Z" fill="#A73920"/>
</svg>
