<svg width="35" height="25" viewBox="0 0 35 25" fill="none" xmlns="http://www.w3.org/2000/svg">
<mask id="path-1-outside-1_54_545" maskUnits="userSpaceOnUse" x="-1" y="-1" width="37" height="27" fill="black">
<rect fill="white" x="-1" y="-1" width="37" height="27"/>
<path d="M7.696 24.32C5.392 24.32 3.54667 23.712 2.16 22.496C0.773334 21.28 0.0800002 19.616 0.0800002 17.504H3.472C3.472 18.6773 3.856 19.6053 4.624 20.288C5.392 20.9493 6.416 21.28 7.696 21.28C8.95467 21.28 9.94667 20.9387 10.672 20.256C11.3973 19.5733 11.76 18.6667 11.76 17.536C11.76 16.6827 11.5253 15.936 11.056 15.296C10.5867 14.656 9.91467 14.2187 9.04 13.984L5.68 13.088C4.10133 12.6613 2.85333 11.8827 1.936 10.752C1.04 9.62133 0.592 8.26667 0.592 6.688C0.592 5.408 0.869333 4.29867 1.424 3.36C2 2.4 2.81067 1.65333 3.856 1.12C4.90133 0.586666 6.11733 0.32 7.504 0.32C8.89067 0.32 10.1067 0.586666 11.152 1.12C12.2187 1.65333 13.04 2.4 13.616 3.36C14.2133 4.29867 14.512 5.39733 14.512 6.656H11.12C11.12 5.65333 10.7787 4.85333 10.096 4.256C9.43467 3.63733 8.57067 3.328 7.504 3.328C6.43733 3.328 5.57333 3.63733 4.912 4.256C4.272 4.85333 3.952 5.64267 3.952 6.624C3.952 7.41333 4.16533 8.07467 4.592 8.608C5.04 9.14133 5.65867 9.51467 6.448 9.728L9.904 10.656C11.5253 11.0827 12.8053 11.9147 13.744 13.152C14.6827 14.3893 15.152 15.8507 15.152 17.536C15.152 18.9227 14.8427 20.128 14.224 21.152C13.6053 22.1547 12.7413 22.9333 11.632 23.488C10.5227 24.0427 9.21067 24.32 7.696 24.32ZM23.8435 24V11.936H18.8515V8.8H23.8435V5.408C23.8435 3.936 24.3128 2.77333 25.2515 1.92C26.1902 1.06667 27.4702 0.639999 29.0915 0.639999H34.2435V3.712H29.1555C27.9182 3.712 27.2995 4.288 27.2995 5.44V8.8H34.2435V11.936H27.2995V24H23.8435Z"/>
</mask>
<path d="M7.696 24.32C5.392 24.32 3.54667 23.712 2.16 22.496C0.773334 21.28 0.0800002 19.616 0.0800002 17.504H3.472C3.472 18.6773 3.856 19.6053 4.624 20.288C5.392 20.9493 6.416 21.28 7.696 21.28C8.95467 21.28 9.94667 20.9387 10.672 20.256C11.3973 19.5733 11.76 18.6667 11.76 17.536C11.76 16.6827 11.5253 15.936 11.056 15.296C10.5867 14.656 9.91467 14.2187 9.04 13.984L5.68 13.088C4.10133 12.6613 2.85333 11.8827 1.936 10.752C1.04 9.62133 0.592 8.26667 0.592 6.688C0.592 5.408 0.869333 4.29867 1.424 3.36C2 2.4 2.81067 1.65333 3.856 1.12C4.90133 0.586666 6.11733 0.32 7.504 0.32C8.89067 0.32 10.1067 0.586666 11.152 1.12C12.2187 1.65333 13.04 2.4 13.616 3.36C14.2133 4.29867 14.512 5.39733 14.512 6.656H11.12C11.12 5.65333 10.7787 4.85333 10.096 4.256C9.43467 3.63733 8.57067 3.328 7.504 3.328C6.43733 3.328 5.57333 3.63733 4.912 4.256C4.272 4.85333 3.952 5.64267 3.952 6.624C3.952 7.41333 4.16533 8.07467 4.592 8.608C5.04 9.14133 5.65867 9.51467 6.448 9.728L9.904 10.656C11.5253 11.0827 12.8053 11.9147 13.744 13.152C14.6827 14.3893 15.152 15.8507 15.152 17.536C15.152 18.9227 14.8427 20.128 14.224 21.152C13.6053 22.1547 12.7413 22.9333 11.632 23.488C10.5227 24.0427 9.21067 24.32 7.696 24.32ZM23.8435 24V11.936H18.8515V8.8H23.8435V5.408C23.8435 3.936 24.3128 2.77333 25.2515 1.92C26.1902 1.06667 27.4702 0.639999 29.0915 0.639999H34.2435V3.712H29.1555C27.9182 3.712 27.2995 4.288 27.2995 5.44V8.8H34.2435V11.936H27.2995V24H23.8435Z" fill="white"/>
<path d="M2.16 22.496L2.81932 21.7441L2.81932 21.7441L2.16 22.496ZM0.0800002 17.504V16.504H-0.92V17.504H0.0800002ZM3.472 17.504H4.472V16.504H3.472V17.504ZM4.624 20.288L3.95964 21.0354L3.96552 21.0406L3.97148 21.0458L4.624 20.288ZM10.672 20.256L11.3574 20.9842L11.3574 20.9842L10.672 20.256ZM11.056 15.296L11.8624 14.7046L11.8624 14.7046L11.056 15.296ZM9.04 13.984L9.29913 13.0182L9.29766 13.0178L9.04 13.984ZM5.68 13.088L5.41909 14.0534L5.42234 14.0542L5.68 13.088ZM1.936 10.752L1.1522 11.3731L1.15944 11.382L1.936 10.752ZM1.424 3.36L0.566488 2.84549L0.563074 2.85127L1.424 3.36ZM3.856 1.12L4.31047 2.01076L4.31047 2.01076L3.856 1.12ZM11.152 1.12L10.6975 2.01079L10.7048 2.01443L11.152 1.12ZM13.616 3.36L12.7585 3.87449L12.7653 3.88578L12.7723 3.89687L13.616 3.36ZM14.512 6.656V7.656H15.512V6.656H14.512ZM11.12 6.656H10.12V7.656H11.12V6.656ZM10.096 4.256L9.41284 4.98627L9.42498 4.99763L9.4375 5.00858L10.096 4.256ZM4.912 4.256L5.59432 4.98705L5.59516 4.98627L4.912 4.256ZM4.592 8.608L3.81113 9.23269L3.8186 9.24203L3.8263 9.25119L4.592 8.608ZM6.448 9.728L6.18709 10.6934L6.18867 10.6938L6.448 9.728ZM9.904 10.656L9.64467 11.6218L9.64951 11.6231L9.904 10.656ZM13.744 13.152L14.5407 12.5476L13.744 13.152ZM14.224 21.152L15.0751 21.6771L15.0799 21.6691L14.224 21.152ZM11.632 23.488L12.0792 24.3824L12.0792 24.3824L11.632 23.488ZM7.696 23.32C5.57195 23.32 3.98143 22.7632 2.81932 21.7441L1.50068 23.2479C3.1119 24.6608 5.21205 25.32 7.696 25.32V23.32ZM2.81932 21.7441C1.68176 20.7466 1.08 19.3744 1.08 17.504H-0.92C-0.92 19.8576 -0.135097 21.8134 1.50068 23.2479L2.81932 21.7441ZM0.0800002 18.504H3.472V16.504H0.0800002V18.504ZM2.472 17.504C2.472 18.9181 2.94674 20.1351 3.95964 21.0354L5.28836 19.5406C4.76526 19.0756 4.472 18.4366 4.472 17.504H2.472ZM3.97148 21.0458C4.96471 21.9011 6.24135 22.28 7.696 22.28V20.28C6.59065 20.28 5.81929 19.9976 5.27652 19.5302L3.97148 21.0458ZM7.696 22.28C9.13937 22.28 10.4011 21.8842 11.3574 20.9842L9.98664 19.5278C9.49219 19.9932 8.76996 20.28 7.696 20.28V22.28ZM11.3574 20.9842C12.3115 20.0862 12.76 18.9014 12.76 17.536H10.76C10.76 18.4319 10.4832 19.0605 9.98664 19.5278L11.3574 20.9842ZM12.76 17.536C12.76 16.4869 12.4672 15.5293 11.8624 14.7046L10.2496 15.8874C10.5835 16.3427 10.76 16.8784 10.76 17.536H12.76ZM11.8624 14.7046C11.2398 13.8557 10.3609 13.303 9.29913 13.0182L8.78087 14.9498C9.46847 15.1343 9.93349 15.4563 10.2496 15.8874L11.8624 14.7046ZM9.29766 13.0178L5.93766 12.1218L5.42234 14.0542L8.78234 14.9502L9.29766 13.0178ZM5.94091 12.1226C4.539 11.7437 3.48144 11.0696 2.71256 10.122L1.15944 11.382C2.22523 12.6957 3.66367 13.5789 5.41909 14.0534L5.94091 12.1226ZM2.71975 10.1309C1.97723 9.19393 1.592 8.06381 1.592 6.688H-0.408C-0.408 8.46953 0.102773 10.0487 1.15225 11.3731L2.71975 10.1309ZM1.592 6.688C1.592 5.55552 1.83607 4.62833 2.28493 3.86873L0.563074 2.85127C-0.0974044 3.969 -0.408 5.26048 -0.408 6.688H1.592ZM2.28149 3.87449C2.7563 3.08314 3.42364 2.46322 4.31047 2.01076L3.40153 0.229237C2.19769 0.84344 1.2437 1.71686 0.566507 2.8455L2.28149 3.87449ZM4.31047 2.01076C5.19165 1.56118 6.24675 1.32 7.504 1.32V-0.68C5.98792 -0.68 4.61102 -0.387848 3.40153 0.229237L4.31047 2.01076ZM7.504 1.32C8.76125 1.32 9.81635 1.56118 10.6975 2.01076L11.6065 0.229237C10.397 -0.387848 9.02008 -0.68 7.504 -0.68V1.32ZM10.7048 2.01443C11.613 2.46851 12.2868 3.08835 12.7585 3.87449L14.4735 2.8455C13.7932 1.71164 12.8244 0.838155 11.5992 0.225572L10.7048 2.01443ZM12.7723 3.89687C13.2546 4.65473 13.512 5.56185 13.512 6.656H15.512C15.512 5.23282 15.1721 3.94261 14.4597 2.82312L12.7723 3.89687ZM14.512 5.656H11.12V7.656H14.512V5.656ZM12.12 6.656C12.12 5.39904 11.6786 4.31198 10.7545 3.50342L9.4375 5.00858C9.87876 5.39468 10.12 5.90763 10.12 6.656H12.12ZM10.7792 3.52573C9.9002 2.70348 8.77627 2.328 7.504 2.328V4.328C8.36506 4.328 8.96913 4.57118 9.41284 4.98627L10.7792 3.52573ZM7.504 2.328C6.23173 2.328 5.1078 2.70348 4.22884 3.52573L5.59516 4.98627C6.03887 4.57119 6.64294 4.328 7.504 4.328V2.328ZM4.22968 3.52494C3.36147 4.33528 2.952 5.40253 2.952 6.624H4.952C4.952 5.8828 5.18253 5.37139 5.59432 4.98705L4.22968 3.52494ZM2.952 6.624C2.952 7.60333 3.22107 8.49511 3.81113 9.23269L5.37287 7.9833C5.1096 7.65422 4.952 7.22334 4.952 6.624H2.952ZM3.8263 9.25119C4.42736 9.96674 5.23574 10.4362 6.18709 10.6934L6.70891 8.76264C6.08159 8.59309 5.65265 8.31593 5.35771 7.96481L3.8263 9.25119ZM6.18867 10.6938L9.64467 11.6218L10.1633 9.69021L6.70733 8.76221L6.18867 10.6938ZM9.64951 11.6231C11.073 11.9977 12.1548 12.7117 12.9473 13.7564L14.5407 12.5476C13.4559 11.1176 11.9777 10.1677 10.1585 9.68892L9.64951 11.6231ZM12.9473 13.7564C13.7426 14.8048 14.152 16.0492 14.152 17.536H16.152C16.152 15.6521 15.6227 13.9739 14.5407 12.5476L12.9473 13.7564ZM14.152 17.536C14.152 18.7698 13.8783 19.7903 13.3681 20.6349L15.0799 21.6691C15.807 20.4657 16.152 19.0755 16.152 17.536H14.152ZM13.373 20.6269C12.8572 21.4628 12.137 22.1175 11.1848 22.5936L12.0792 24.3824C13.3457 23.7492 14.3535 22.8465 15.075 21.6771L13.373 20.6269ZM11.1848 22.5936C10.2417 23.0651 9.08923 23.32 7.696 23.32V25.32C9.33211 25.32 10.8037 25.0202 12.0792 24.3824L11.1848 22.5936ZM23.8435 24H22.8435V25H23.8435V24ZM23.8435 11.936H24.8435V10.936H23.8435V11.936ZM18.8515 11.936H17.8515V12.936H18.8515V11.936ZM18.8515 8.8V7.8H17.8515V8.8H18.8515ZM23.8435 8.8V9.8H24.8435V8.8H23.8435ZM25.2515 1.92L24.5788 1.18006L24.5788 1.18006L25.2515 1.92ZM34.2435 0.639999H35.2435V-0.360001H34.2435V0.639999ZM34.2435 3.712V4.712H35.2435V3.712H34.2435ZM27.2995 8.8H26.2995V9.8H27.2995V8.8ZM34.2435 8.8H35.2435V7.8H34.2435V8.8ZM34.2435 11.936V12.936H35.2435V11.936H34.2435ZM27.2995 11.936V10.936H26.2995V11.936H27.2995ZM27.2995 24V25H28.2995V24H27.2995ZM24.8435 24V11.936H22.8435V24H24.8435ZM23.8435 10.936H18.8515V12.936H23.8435V10.936ZM19.8515 11.936V8.8H17.8515V11.936H19.8515ZM18.8515 9.8H23.8435V7.8H18.8515V9.8ZM24.8435 8.8V5.408H22.8435V8.8H24.8435ZM24.8435 5.408C24.8435 4.16812 25.2281 3.29276 25.9242 2.65994L24.5788 1.18006C23.3976 2.25391 22.8435 3.70388 22.8435 5.408H24.8435ZM25.9242 2.65994C26.6319 2.01651 27.6474 1.64 29.0915 1.64V-0.360001C27.2929 -0.360001 25.7484 0.116823 24.5788 1.18006L25.9242 2.65994ZM29.0915 1.64H34.2435V-0.360001H29.0915V1.64ZM33.2435 0.639999V3.712H35.2435V0.639999H33.2435ZM34.2435 2.712H29.1555V4.712H34.2435V2.712ZM29.1555 2.712C28.3997 2.712 27.6467 2.88646 27.0821 3.41211C26.504 3.95029 26.2995 4.69081 26.2995 5.44H28.2995C28.2995 5.03719 28.4043 4.91371 28.4449 4.87589C28.499 4.82554 28.6739 4.712 29.1555 4.712V2.712ZM26.2995 5.44V8.8H28.2995V5.44H26.2995ZM27.2995 9.8H34.2435V7.8H27.2995V9.8ZM33.2435 8.8V11.936H35.2435V8.8H33.2435ZM34.2435 10.936H27.2995V12.936H34.2435V10.936ZM26.2995 11.936V24H28.2995V11.936H26.2995ZM27.2995 23H23.8435V25H27.2995V23Z" fill="#1D1C1A" mask="url(#path-1-outside-1_54_545)"/>
</svg>
